<svg xmlns="http://www.w3.org/2000/svg" xmlns:xlink="http://www.w3.org/1999/xlink" width="990px" height="800px" viewBox="0 0 990 800" preserveAspectRatio="xMidYMid meet" >
	<rect id="svgEditorBackground" x="0" y="0" width="990" height="800" style="fill: none; stroke: none;"/>
	<path d="M 245 175 a 335.411 335.411 0 0 0 -173 207" stroke="black" id="e1_circleArc" style="fill: none; stroke-width: 1px;" />
	<path d="M 246 175 a 215.589 215.589 0 0 0 -76 218" stroke="black" id="e2_circleArc" style="fill: none; stroke-width: 1px;" />
	<path d="M122,280a324.7792053222656,324.7792053222656,0,0,1,229,-39" stroke="black" id="e3_circleArc" style="fill: none; stroke-width: 1px;"/>
	<path d="M 222 265 c -51 58 -27 71 110 20" stroke="black" id="e4_arc3" style="fill: none; stroke-width: 1px;" />
	<path d="M 470 247 c 5.99207 -3.41431 16.2831 -13.1908 20 -19 s 9.74591 -20.6852 9 -28 s -9.61017 -20.7787 -15 -26 s -15.8592 -11.2386 -22 -13 s -21.1902 -1.62086 -28 0 s -18.1907 6.81721 -23 11 s -11.6967 15.1257 -14 21 s -3.8595 18.6721 -4 25 s 2.64417 26.7811 6 35 s 11.7822 18.8949 16 25 s 20.0027 23.2177 26.625 32.875 s 8.66675 11.1078 11.0938 17.0313 s 4.66708 13.4376 3.21875 26.3438 s -3.48227 18.3809 -8.9375 25.75 s -11.4791 12.6896 -22.5 18.875 s -19.7312 7.62631 -26.5 9.125 s -27.9742 1.14117 -36 -3 s -21.3235 -20.7758 -24 -30 s -1.1041 -21.0876 0 -28 s 5.80936 -22.5773 10 -29 s 8.86075 -11.4041 15 -16" stroke="black" id="e8_curveS3" style="fill: none; stroke-width: 1px;" />
	<path d="M 482.494 347.529 a 129.032 129.032 0 0 0 15 -41" stroke="black" id="e11_circleArc" style="fill: none; stroke-width: 1px;" />
	<path d="M 476.994 392.529 a 343.188 343.188 0 0 0 33.5 -85" stroke="black" id="e12_circleArc" style="fill: none; stroke-width: 1px;" />
	<path d="M 492.994 394.529 a 388.399 388.399 0 0 0 26.5 -86" stroke="black" id="e13_circleArc" style="fill: none; stroke-width: 1px;" />
	<path d="M 520.494 350.029 a 97.8669 97.8669 0 0 0 11 -39.5" stroke="black" id="e14_circleArc" style="fill: none; stroke-width: 1px;" />
	<path d="M 539.744 291.779 a 3.84952 3.84952 0 1 0 4 -0.75" stroke="black" id="e15_circleArc" style="fill: none; stroke-width: 1px;" />
	<path d="M 497.817 307.062 c -9.5 56 -4.25 58 12.5 2" stroke="black" id="e17_arc3" style="fill: none; stroke-width: 1px;" />
</svg>